# xmcd
#
# Track frame offsets: 
#        150
#        18787
#        38947
#        55207
#        74475
#        93780
#        112800
#        131850
#        148822
#        179750
#
# Disc length: 2707 seconds
#
# Revision: 3
# Processed by: cddbd v1.5.2PL0 Copyright (c) Steve Scherf et al.
# Submitted via: ExactAudioCopy v0.95b4
#
DISCID=8e0a910a
DTITLE=Asia - Astra
DYEAR=1985
DGENRE=Rock, Classic Rock, Art/Progressive Rock
TTITLE0=Go
TTITLE1=Voice Of America
TTITLE2=Hard On Me
TTITLE3=Wishing
TTITLE4=Countdown To Zero
TTITLE5=Love Now Til Eternity
TTITLE6=Too Late
TTITLE7=Suspicion
TTITLE8=Rock And Roll Dream
TTITLE9=After The War
EXTD=YEAR: 1985
EXTT0=
EXTT1=
EXTT2=
EXTT3=
EXTT4=
EXTT5=
EXTT6=
EXTT7=
EXTT8=
EXTT9=
PLAYORDER=
